<?xml version="1.0" standalone="no"?>
<!DOCTYPE svg PUBLIC "-//W3C//DTD SVG 20010904//EN"
 "http://www.w3.org/TR/2001/REC-SVG-20010904/DTD/svg10.dtd">
<svg version="1.0" xmlns="http://www.w3.org/2000/svg"
 width="353.000000pt" height="353.000000pt" viewBox="0 0 353.000000 353.000000"
 preserveAspectRatio="xMidYMid meet">
<metadata>
Created by potrace 1.14, written by Peter Selinger 2001-2017
</metadata>
<g transform="translate(0.000000,353.000000) scale(0.100000,-0.100000)"
fill="#000000" stroke="none">
<path d="M2213 2656 c-30 -30 -39 -58 -47 -144 -9 -94 -4 -110 42 -118 20 -3
42 -12 47 -18 6 -7 44 -18 86 -25 42 -8 81 -16 87 -20 7 -4 7 -21 0 -54 -7
-36 -14 -47 -29 -47 -10 0 -19 -5 -19 -11 0 -15 -41 -48 -60 -49 -8 0 -50 11
-93 25 -42 14 -96 28 -118 31 l-42 7 23 -31 c13 -18 21 -34 18 -37 -3 -3 -52
6 -108 20 -56 14 -110 25 -119 23 -8 -2 33 -14 91 -27 59 -13 106 -26 104 -30
-2 -3 9 -7 25 -8 34 -3 38 14 12 54 -16 25 -16 25 2 20 11 -3 32 -9 47 -13 16
-3 25 -11 21 -17 -4 -6 -1 -7 6 -2 16 9 103 -14 95 -26 -3 -5 3 -6 12 -2 15 6
15 4 0 -20 -10 -14 -31 -29 -48 -32 -47 -11 -132 -100 -154 -162 -10 -29 -23
-53 -28 -53 -4 0 -3 -6 3 -14 13 -15 4 -71 -13 -85 -6 -5 -18 -11 -26 -13 -8
-2 -44 -32 -80 -68 l-65 -65 -110 22 c-195 39 -545 68 -545 44 0 -5 7 -15 17
-22 14 -12 10 -15 -38 -20 l-54 -6 63 -1 c34 -1 62 1 62 5 0 3 -7 15 -17 25
-15 17 -13 18 48 18 141 0 569 -60 569 -79 0 -4 -21 -27 -47 -53 -32 -30 -66
-51 -101 -63 -51 -16 -56 -16 -131 4 -42 12 -86 21 -96 21 -17 0 -17 -1 -1
-19 22 -24 12 -44 -20 -38 -13 2 -25 1 -27 -2 -2 -3 -2 0 -1 6 2 7 -1 23 -6
35 -8 22 -9 22 -9 -5 -1 -22 -5 -27 -18 -23 -92 29 -377 70 -433 63 -29 -3
-26 -4 15 -6 90 -3 316 -40 413 -67 12 -3 22 -12 22 -20 0 -14 -39 -40 -53
-36 -5 1 -6 -1 -3 -6 6 -9 -54 -58 -66 -54 -5 1 -7 -1 -6 -6 4 -16 -63 -131
-79 -136 -10 -3 -28 -22 -41 -41 -20 -32 -26 -35 -55 -30 -46 9 -127 -27 -127
-55 0 -12 -4 -19 -8 -16 -4 2 -8 -4 -8 -14 0 -10 5 -18 10 -17 6 1 11 -7 12
-18 3 -29 21 -72 34 -80 8 -5 8 -11 0 -19 -5 -7 -11 -31 -12 -52 -1 -48 20
-144 33 -144 20 0 25 -2 39 -15 13 -11 18 -11 35 3 11 9 22 28 24 42 11 83 59
181 127 260 31 36 67 82 81 102 14 21 34 40 46 44 26 8 112 68 157 110 43 39
65 50 107 52 34 2 39 -6 42 -61 1 -40 8 -47 45 -47 30 0 76 33 76 54 0 22 110
83 129 72 5 -4 12 -2 16 4 4 6 10 8 15 5 5 -3 55 -10 112 -15 57 -6 135 -19
173 -31 39 -11 88 -24 110 -29 60 -12 115 -29 157 -47 25 -10 46 -13 65 -8 15
5 32 7 36 7 4 -1 14 3 23 10 67 56 83 94 66 162 -6 22 -14 57 -17 77 -7 43
-116 213 -180 280 -24 26 -49 59 -55 74 -6 17 -16 25 -24 22 -10 -4 -18 8 -26
40 -10 34 -17 44 -31 40 -12 -3 -18 3 -22 22 -3 14 -10 39 -16 55 -9 23 -14
26 -26 16 -12 -10 -15 -10 -15 0 0 6 -9 25 -21 41 -17 25 -19 32 -8 45 11 14
14 12 26 -10 14 -26 33 -35 33 -15 0 25 21 -6 37 -57 11 -36 21 -53 30 -50 8
3 19 -13 30 -45 11 -31 22 -48 30 -44 12 4 17 -18 16 -62 -1 -7 2 -13 6 -13
16 1 98 33 111 45 8 7 45 15 81 17 36 3 72 9 80 14 12 8 69 23 150 40 29 7 45
-9 53 -50 5 -29 22 -55 44 -69 6 -4 12 -15 12 -23 0 -27 37 -88 80 -132 26
-27 40 -48 36 -58 -3 -8 -2 -12 4 -9 6 4 10 -5 10 -20 0 -31 26 -72 83 -132
25 -26 36 -46 32 -54 -5 -7 -4 -10 3 -5 7 4 12 -8 14 -36 3 -37 6 -43 25 -43
13 0 28 -6 35 -13 7 -7 19 -12 28 -12 25 0 40 -21 40 -54 1 -33 20 -66 38 -66
24 0 42 33 42 78 -1 105 -36 180 -83 174 -21 -3 -29 3 -43 29 -9 18 -18 45
-19 59 -1 14 -5 32 -8 40 -3 8 -8 33 -11 54 -4 28 -17 52 -44 80 -44 45 -66
82 -58 95 3 5 -1 12 -9 15 -11 4 -14 13 -9 31 4 16 -1 37 -15 60 -13 22 -21
53 -21 79 0 66 -41 151 -79 164 -17 6 -33 17 -35 24 -2 7 -8 31 -13 53 -6 22
-14 48 -18 58 -10 24 16 22 38 -3 24 -28 42 -25 68 11 12 17 34 38 48 47 14
10 26 26 27 37 1 11 7 48 15 83 12 59 12 66 -6 100 -34 63 -154 104 -195 67
-19 -17 -60 -13 -60 6 0 5 -4 9 -10 9 -5 0 -9 -11 -8 -24 1 -14 5 -23 9 -20 4
2 10 0 13 -5 8 -13 -33 -101 -50 -108 -7 -3 -33 5 -58 16 -24 12 -48 20 -54
19 -5 -2 -27 14 -47 36 -59 60 -88 74 -145 69 -32 -2 -58 1 -72 11 -13 7 -61
16 -106 19 -67 4 -88 10 -106 26 -31 30 -112 28 -143 -3z m85 -61 c13 -16 26
-23 36 -19 12 5 16 0 16 -20 l0 -26 -42 26 c-27 17 -43 23 -46 15 -2 -6 -14
-8 -29 -5 -16 4 -28 2 -34 -7 -7 -11 -9 -9 -9 7 0 30 19 44 53 37 21 -4 28 -3
23 5 -14 23 13 12 32 -13z m782 -80 c-7 -9 -15 -13 -17 -11 -7 7 7 26 19 26 6
0 6 -6 -2 -15z m-702 -56 c14 -18 41 -38 59 -46 33 -13 33 -13 17 -44 -10 -20
-20 -29 -31 -25 -8 3 -32 9 -54 12 -45 7 -44 6 -24 43 8 16 13 30 11 32 -7 8
-16 59 -11 59 4 0 18 -14 33 -31z m714 -11 c-7 -7 -12 -8 -12 -2 0 14 12 26
19 19 2 -3 -1 -11 -7 -17z m95 -4 c-3 -4 -2 -16 4 -26 9 -16 8 -19 -3 -16 -17
6 -23 48 -7 48 7 0 9 -3 6 -6z m-57 -58 c0 -8 10 -18 23 -22 22 -7 37 -21 37
-38 0 -4 -11 -1 -25 8 -27 18 -35 7 -10 -14 12 -10 12 -15 -2 -36 -19 -30 -30
-30 -60 -2 -29 27 -29 43 0 85 24 35 37 42 37 19z m90 -32 c0 -8 -4 -12 -10
-9 -5 3 -10 10 -10 16 0 5 5 9 10 9 6 0 10 -7 10 -16z m-372 -126 c2 -12 -2
-15 -15 -12 -15 4 -21 -4 -31 -41 -10 -39 -15 -45 -27 -35 -12 10 -15 2 -21
-49 -7 -64 -15 -72 -46 -44 -44 40 -5 147 66 183 46 23 69 22 74 -2z m62 -23
c22 -27 23 -87 1 -122 -23 -36 -87 -73 -126 -73 -32 0 -29 20 3 35 13 5 28 25
34 42 7 18 18 33 25 33 7 0 15 20 19 50 7 51 21 63 44 35z m-64 -42 c-8 -15
-22 -43 -31 -62 -9 -18 -19 -30 -22 -27 -3 3 -13 0 -21 -7 -13 -10 -15 -9 -9
6 4 10 7 23 7 28 0 5 7 9 15 9 8 0 19 17 26 40 7 21 19 41 28 43 24 5 24 1 7
-30z m484 -568 c0 -8 5 -15 10 -15 6 0 10 -7 10 -15 0 -8 -7 -15 -15 -15 -8 0
-15 7 -15 15 0 21 -24 19 -45 -5 -10 -11 -24 -20 -32 -20 -7 0 -13 -5 -13 -12
0 -6 -3 -9 -6 -5 -3 3 -1 22 6 42 9 28 16 34 30 30 10 -3 21 -1 25 5 10 16 45
12 45 -5z m-1010 -51 c0 -2 -23 -3 -52 -2 l-52 1 23 18 c13 11 20 19 17 19 -4
0 -4 4 -1 10 5 8 65 -35 65 -46z m-466 -13 c-16 -28 -32 -51 -38 -51 -6 0 -5
5 2 12 7 7 12 19 12 29 0 18 39 73 47 66 2 -3 -8 -28 -23 -56z m114 13 c12 -8
22 -18 22 -23 0 -10 -48 -36 -66 -36 -8 0 -14 -4 -13 -10 0 -18 47 -7 86 19
21 14 49 26 62 26 24 0 24 0 5 -16 -18 -15 -18 -15 6 -10 14 3 50 11 80 18 66
16 210 12 210 -5 0 -7 -10 -17 -22 -22 -35 -15 -35 -58 -2 -84 24 -19 30 -20
48 -8 12 8 24 30 28 48 4 19 4 -2 1 -46 -3 -44 -6 -81 -7 -82 0 -1 -55 12
-121 28 -66 16 -144 29 -173 29 -31 0 -66 7 -85 17 -18 9 -43 19 -57 20 -14 2
-33 14 -42 26 -13 17 -18 18 -18 6 0 -22 22 -47 45 -51 14 -3 2 -12 -42 -32
-45 -20 -69 -39 -88 -68 -14 -21 -32 -37 -38 -35 -19 6 -10 116 13 152 10 16
38 61 60 98 44 73 52 76 108 41z m-390 -29 c1 -1 -6 -5 -17 -8 -11 -3 -26 2
-32 10 -11 12 -8 13 17 7 16 -4 30 -8 32 -9z m852 -25 c0 -5 -2 -10 -4 -10 -3
0 -8 5 -11 10 -3 6 -1 10 4 10 6 0 11 -4 11 -10z m-30 -16 c0 -8 -4 -12 -10
-9 -5 3 -10 10 -10 16 0 5 5 9 10 9 6 0 10 -7 10 -16z m-864 -141 c26 -34 26
-35 8 -53 -22 -20 -98 -72 -169 -113 -34 -20 -45 -31 -35 -37 17 -10 -37 -80
-63 -80 -10 0 -34 -12 -52 -26 l-34 -26 -26 20 c-21 17 -23 22 -11 32 8 6 18
26 22 43 8 39 40 103 55 113 15 9 1 -53 -19 -84 -11 -16 -12 -26 -4 -34 7 -7
16 3 31 35 12 25 21 53 21 61 0 8 9 39 20 68 20 53 79 120 160 181 l34 26 17
-45 c10 -25 30 -61 45 -81z m828 112 c-6 -16 -24 -21 -24 -7 0 11 11 22 21 22
5 0 6 -7 3 -15z m-604 -85 c0 -5 -5 -10 -11 -10 -5 0 -7 5 -4 10 3 6 8 10 11
10 2 0 4 -4 4 -10z m-613 -226 l21 -6 -19 -46 c-20 -45 -20 -46 -1 -71 24 -33
53 -37 77 -11 28 31 39 24 15 -10 -30 -42 -71 -137 -85 -195 -7 -31 -18 -51
-27 -53 -36 -7 -51 129 -23 208 13 36 13 44 1 54 -7 6 -18 34 -23 63 -13 69 1
84 64 67z m-96 -24 c0 -3 7 -34 14 -70 17 -80 18 -83 4 -75 -13 9 -31 52 -34
85 -2 14 -4 30 -5 35 -5 21 0 37 11 33 6 -2 10 -6 10 -8z m22 -198 c-3 -12 -9
-22 -14 -22 -12 0 -11 7 2 32 13 25 20 19 12 -10z m-8 -41 c3 -5 1 -12 -5 -16
-5 -3 -10 1 -10 9 0 18 6 21 15 7z"/>
<path d="M1810 2403 c0 -3 7 -14 16 -24 15 -16 5 -17 -198 -12 -255 7 -395 -2
-377 -23 13 -15 44 -20 34 -5 -10 18 110 24 343 18 127 -3 232 -2 232 2 0 5
-7 15 -17 22 -14 12 -6 15 63 20 l79 5 -87 2 c-49 1 -88 -1 -88 -5z"/>
<path d="M2018 2393 c18 -2 45 -2 60 0 15 2 0 4 -33 4 -33 0 -45 -2 -27 -4z"/>
<path d="M2111 2386 c2 -2 36 -6 74 -9 54 -4 61 -4 30 3 -40 9 -112 13 -104 6z"/>
<path d="M1205 2320 l-90 -6 98 -2 c59 -1 97 2 97 8 0 6 -3 9 -7 8 -5 -1 -48
-5 -98 -8z"/>
<path d="M890 2294 c-47 -7 -91 -13 -99 -14 -8 0 -12 -3 -8 -6 3 -3 36 -1 74
5 37 7 111 15 163 20 92 8 93 8 25 9 -38 0 -108 -6 -155 -14z"/>
<path d="M665 2251 c-50 -13 -55 -16 -31 -19 16 -2 45 3 65 12 20 8 45 17 56
19 15 4 14 5 -5 4 -14 0 -52 -7 -85 -16z"/>
<path d="M1500 2254 c0 -3 10 -14 23 -24 30 -25 21 -30 -38 -19 -141 27 -312
39 -525 37 l-225 -2 280 -7 c171 -4 317 -13 375 -22 205 -34 187 -33 170 -11
-16 21 -51 54 -57 54 -1 0 -3 -3 -3 -6z"/>
<path d="M1552 2245 c4 -4 22 -7 40 -7 18 1 84 -5 147 -14 62 -8 115 -13 118
-11 5 6 -136 27 -232 34 -44 3 -77 2 -73 -2z"/>
<path d="M406 2084 c-9 -23 -7 -52 4 -56 5 -2 2 -23 -7 -51 -13 -40 -14 -55
-4 -88 10 -33 16 -39 39 -38 18 1 21 3 9 6 -36 9 -47 79 -23 146 8 22 10 37 4
37 -6 0 -8 14 -6 30 5 32 -6 41 -16 14z"/>
<path d="M535 2053 c-34 -82 -32 -163 6 -184 30 -16 36 -3 8 20 -20 16 -24 28
-22 68 1 26 8 67 17 91 19 52 12 56 -9 5z"/>
<path d="M1470 2084 c0 -5 7 -17 15 -27 18 -24 2 -63 -34 -82 l-26 -14 32 2
c17 1 30 4 27 6 -2 2 6 15 16 29 26 32 25 44 -5 72 -14 13 -25 19 -25 14z"/>
<path d="M1830 2072 c0 -5 7 -15 15 -22 8 -7 15 -9 15 -6 0 4 -7 14 -15 22 -8
9 -15 11 -15 6z"/>
<path d="M1640 2029 c0 -19 -9 -49 -20 -67 -20 -32 -20 -33 -1 -22 46 24 66
85 36 110 -13 11 -15 8 -15 -21z"/>
<path d="M755 2030 c-3 -5 -1 -10 4 -10 6 0 11 5 11 10 0 6 -2 10 -4 10 -3 0
-8 -4 -11 -10z"/>
<path d="M1401 2012 c-17 -31 -13 -40 5 -14 9 13 14 26 11 29 -3 2 -10 -4 -16
-15z"/>
<path d="M2005 2000 c9 -10 15 -30 13 -47 -2 -22 -15 -35 -62 -63 -67 -39 -54
-55 16 -19 53 26 88 57 88 79 0 23 -27 57 -51 63 -20 5 -20 5 -4 -13z"/>
<path d="M107 2003 c-16 -15 -6 -34 16 -31 22 3 22 2 18 -96 -4 -100 3 -121
35 -109 11 4 11 8 -1 20 -12 12 -14 31 -9 96 3 45 7 88 10 95 2 7 -6 12 -21
12 -14 0 -25 5 -25 10 0 11 -13 13 -23 3z"/>
<path d="M742 1980 c-9 -24 -7 -33 9 -55 11 -14 30 -25 42 -25 19 0 17 3 -12
21 -30 18 -33 24 -28 55 7 42 2 44 -11 4z"/>
<path d="M1769 1940 c-35 -45 -64 -73 -84 -79 l-30 -9 31 -1 c26 -1 39 7 70
46 36 43 79 113 70 113 -1 0 -27 -31 -57 -70z"/>
<path d="M273 1963 c0 -21 -4 -50 -8 -65 -5 -18 -3 -28 4 -28 5 0 8 6 5 14 -3
8 2 26 11 40 11 16 15 35 11 51 -9 37 -22 30 -23 -12z"/>
<path d="M1913 1978 c-11 -14 -24 -58 -17 -58 9 0 44 45 44 57 0 16 -15 17
-27 1z"/>
<path d="M635 1970 c-3 -6 1 -7 9 -4 18 7 21 14 7 14 -6 0 -13 -4 -16 -10z"/>
<path d="M914 1959 c-3 -6 -25 -20 -48 -30 -22 -10 -35 -19 -27 -19 15 0 101
47 101 55 0 10 -19 5 -26 -6z"/>
<path d="M1573 1930 c-6 -17 -22 -34 -35 -39 -12 -6 -18 -10 -13 -11 6 -1 18
-3 28 -5 11 -2 16 -1 13 2 -3 3 1 12 9 20 8 8 15 25 15 39 0 31 -3 30 -17 -6z"/>
<path d="M1250 1935 c-17 -10 -20 -14 -9 -15 9 0 22 7 29 15 15 18 12 18 -20
0z"/>
<path d="M1457 1933 c-16 -8 -50 -18 -75 -23 l-47 -8 43 -1 c46 -1 112 21 112
38 0 6 -1 11 -2 10 -2 -1 -16 -8 -31 -16z"/>
<path d="M1106 1925 c-11 -8 -15 -15 -9 -15 6 0 16 7 23 15 16 19 11 19 -14 0z"/>
<path d="M680 1924 c0 -1 6 -7 14 -13 10 -9 15 -8 19 2 3 8 -3 13 -14 13 -11
0 -19 -1 -19 -2z"/>
<path d="M592 1895 c-6 -13 -8 -24 -3 -22 5 1 17 -8 27 -21 12 -14 34 -24 59
-27 39 -5 39 -5 10 6 -41 16 -56 29 -70 62 l-11 28 -12 -26z"/>
<path d="M940 1906 c0 -11 8 -16 28 -15 15 0 21 3 12 6 -8 3 -21 10 -27 16 -9
7 -13 5 -13 -7z"/>
<path d="M1013 1893 c9 -2 25 -2 35 0 9 3 1 5 -18 5 -19 0 -27 -2 -17 -5z"/>
<path d="M1960 1815 c-14 -8 -38 -15 -55 -15 -26 -1 -28 -2 -12 -11 11 -6 33
-8 50 -5 18 4 40 8 49 9 9 1 15 3 13 6 -3 2 0 10 6 18 16 18 -18 17 -51 -2z"/>
<path d="M1838 1803 c6 -2 18 -2 25 0 6 3 1 5 -13 5 -14 0 -19 -2 -12 -5z"/>
<path d="M701 1673 l-44 -4 29 -20 29 -19 -85 -1 c-47 -1 -116 -5 -155 -9 -64
-7 -61 -7 25 -4 52 2 126 4 164 4 68 0 69 0 51 20 -10 11 -16 21 -14 22 2 1
105 4 229 8 l225 6 -205 0 c-113 0 -225 -1 -249 -3z"/>
<path d="M265 1599 c-27 -4 -93 -18 -145 -31 -83 -20 -90 -23 -56 -26 21 -2
42 2 46 8 6 9 149 39 255 53 23 3 21 4 -10 4 -22 1 -62 -3 -90 -8z"/>
<path d="M920 1564 c0 -3 10 -14 23 -24 12 -10 20 -20 17 -23 -3 -2 -39 1 -80
9 -41 7 -88 13 -105 13 -16 -1 23 -10 88 -21 65 -11 120 -18 123 -16 2 3 -9
19 -25 37 -28 30 -41 38 -41 25z"/>
<path d="M170 1554 c8 -1 141 -4 295 -6 154 -2 253 0 220 3 -59 7 -544 10
-515 3z"/>
<path d="M1583 1255 c0 -8 4 -12 9 -9 5 3 6 10 3 15 -9 13 -12 11 -12 -6z"/>
</g>
</svg>
